<?xml version="1.0" encoding="UTF-8"?>
<svg version="1.1" xmlns="http://www.w3.org/2000/svg" width="1000" height="1000">
<path d="M0 0 C1.28603028 -0.00170885 2.57206057 -0.0034177 3.89706147 -0.00517833 C7.42276817 -0.00959963 10.94835078 -0.00172121 14.4740417 0.00837779 C18.29250851 0.01708633 22.1109694 0.01408694 25.92944336 0.01257324 C32.53066516 0.01152903 39.13184714 0.01775683 45.73305893 0.02904892 C55.27707322 0.04536428 64.82106843 0.05051808 74.36509515 0.0530249 C89.85295559 0.05739257 105.34079485 0.0706764 120.8286438 0.08963013 C135.8657521 0.10801301 150.90285464 0.12215771 165.93997192 0.13064575 C167.33236866 0.13143392 167.33236866 0.13143392 168.75289463 0.13223802 C173.41013594 0.13484826 178.06737729 0.13737563 182.72461867 0.13986182 C221.30699733 0.1605654 259.88935237 0.19576554 298.47171021 0.24050903 C297.80543542 4.06314545 296.73208914 7.55355281 295.40530396 11.19754028 C295.00247192 12.30935669 294.59963989 13.4211731 294.18460083 14.56668091 C293.76372192 15.71716919 293.34284302 16.86765747 292.90921021 18.05300903 C292.27209106 19.80774536 292.27209106 19.80774536 291.62210083 21.59793091 C290.57515712 24.47996696 289.52492137 27.36075872 288.47171021 30.24050903 C287.82666416 30.24148584 287.18161812 30.24246265 286.51702523 30.24346906 C248.26281987 30.30177616 210.00867247 30.37559947 171.75453718 30.46949532 C167.15847143 30.4807631 162.56240537 30.49190162 157.96633911 30.50296021 C156.5938826 30.50626573 156.5938826 30.50626573 155.19369969 30.50963803 C140.39023645 30.54498369 125.58677326 30.56986324 110.7832835 30.59085605 C95.58678509 30.61263987 80.39034131 30.64571479 65.19388938 30.68921059 C55.82138457 30.71568285 46.44894779 30.7334108 37.07640746 30.73985507 C30.64409479 30.74512251 24.21186763 30.7613849 17.77960083 30.78617469 C14.07183469 30.80014334 10.36422146 30.80937794 6.65642738 30.8055172 C2.62734737 30.80144935 -1.40130204 30.8205931 -5.43032837 30.84178162 C-6.5898954 30.83693404 -7.74946243 30.83208646 -8.94416785 30.82709199 C-21.31241696 30.93407213 -32.98421195 33.31426515 -42.34078979 41.90457153 C-48.05209358 48.15844918 -51.11939506 55.02710121 -51.77828979 63.42800903 C-51.15546023 72.92615989 -47.65781162 81.41209122 -40.66500854 87.99441528 C-26.4737519 98.65790191 -7.45938842 96.81323037 9.25296021 96.77957153 C11.95655726 96.78710549 14.66010841 96.80116849 17.36367798 96.81530762 C23.73546323 96.84539277 30.10712441 96.85724363 36.47897482 96.86088407 C47.83859591 96.86754117 59.19812649 96.89728212 70.55764341 96.94598043 C75.1534352 96.96473344 79.74903979 96.9665392 84.34487915 96.96405029 C146.88934506 97.06242928 146.88934506 97.06242928 167.28811646 116.79129028 C181.92724096 133.21120275 183.58321195 152.20136882 182.47171021 173.24050903 C180.88428166 187.05113736 173.52189197 200.34220215 163.04202271 209.32254028 C146.59759092 222.16826309 125.77943489 224.38248356 105.55838013 224.40164185 C104.29196686 224.40660675 103.02555359 224.41157166 101.72076416 224.41668701 C98.26758548 224.42971362 94.81442617 224.43623775 91.3612268 224.44069767 C89.1929415 224.4436466 87.02466127 224.44775483 84.85637856 224.45220184 C78.04120957 224.46585638 71.22605244 224.4755308 64.41087073 224.47940373 C56.60274452 224.48386784 48.7947948 224.50134728 40.98672217 224.53040433 C34.91408803 224.55220035 28.84150286 224.56211759 22.76883012 224.56344485 C19.15991123 224.56448096 15.55115863 224.57012704 11.94228172 224.58826447 C-42.83649246 224.84775753 -42.83649246 224.84775753 -63.17282104 205.67800903 C-75.4110827 193.01353926 -78.52828979 178.53665561 -78.52828979 161.24050903 C-68.62828979 161.24050903 -58.72828979 161.24050903 -48.52828979 161.24050903 C-47.53828979 165.53050903 -46.54828979 169.82050903 -45.52828979 174.24050903 C-41.05055031 183.51582654 -35.79424533 188.43118316 -26.15328979 192.05300903 C-17.09762723 194.63844568 -7.49246613 194.38963969 1.84939575 194.38577271 C3.62741829 194.39081062 3.62741829 194.39081062 5.44136047 194.39595032 C9.33039419 194.40538972 13.21938452 194.40739993 17.10842896 194.40847778 C18.45992362 194.40990379 19.81141811 194.41150027 21.16291237 194.41326332 C28.2423304 194.42248658 35.32172973 194.4266021 42.40115356 194.42581177 C48.95454477 194.42521214 55.50785336 194.43574915 62.06122369 194.45155543 C67.72534682 194.4647201 73.38944326 194.46999194 79.05358154 194.46935636 C82.41975088 194.46910393 85.7857887 194.47276268 89.15195274 194.48253441 C117.40537791 195.78628419 117.40537791 195.78628419 142.34671021 184.80300903 C148.89068623 176.91174383 151.55152524 169.47013622 151.47171021 159.24050903 C150.28404856 150.00702193 147.12504284 143.31314292 140.12405396 137.18582153 C137.44532572 135.22115782 134.96547343 133.90454522 131.90921021 132.61550903 C130.97979614 132.21074341 130.05038208 131.80597778 129.09280396 131.38894653 C119.85496021 128.45914496 110.52029759 127.94693301 100.89212036 127.9692688 C99.69675659 127.96404205 98.50139282 127.95881531 97.26980591 127.95343018 C94.02531079 127.94061107 90.78092719 127.93614407 87.53641176 127.93458676 C84.10606245 127.9300627 80.67578842 127.91202515 77.2454834 127.89479065 C67.0609285 127.84594288 56.8763295 127.81488981 46.69168091 127.79348755 C38.77829701 127.77682894 30.86505507 127.75362946 22.95176542 127.7104668 C19.55630608 127.69251952 16.16120704 127.68189267 12.76567459 127.6817646 C-42.06313504 127.678948 -42.06313504 127.678948 -61.52828979 113.24050903 C-62.23211792 112.72875122 -62.93594604 112.21699341 -63.66110229 111.68972778 C-74.38874093 103.14432742 -80.48794707 89.60347178 -82.52828979 76.24050903 C-82.82791191 71.75785089 -82.85319025 67.29445246 -82.84078979 62.80300903 C-82.85690308 61.63963013 -82.87301636 60.47625122 -82.88961792 59.27761841 C-82.89798242 44.41390863 -78.11421121 33.38755452 -67.96578979 22.58816528 C-49.73147957 5.02595303 -24.47391954 -0.12152895 0 0 Z " fill="#000000" transform="translate(280.5282897949219,387.7594909667969)"/>
<path d="M0 0 C9.57 0 19.14 0 29 0 C33.89766673 12.13114375 38.66069794 24.28595242 43.18069458 36.56195068 C50.76212123 57.1395837 58.53276971 77.64447767 66.32543945 98.14282227 C67.26393725 100.61210293 68.20233141 103.08142298 69.140625 105.55078125 C69.37521109 106.168127 69.60979717 106.78547276 69.85149193 107.42152596 C73.47541411 116.96060718 77.07799134 126.50759539 80.66829109 136.05937958 C81.47730292 138.21165438 82.28663555 140.36380829 83.09605408 142.51593018 C85.4364453 148.73929774 87.77571805 154.96307157 90.10912132 161.18906307 C90.83281342 163.11878816 91.5577088 165.04805595 92.28314209 166.97712708 C93.17150202 169.33966465 94.05778864 171.70298317 94.94171143 174.06718445 C95.33195496 175.10341446 95.72219849 176.13964447 96.12426758 177.20727539 C96.46428299 178.11377335 96.8042984 179.0202713 97.15461731 179.95423889 C97.82914806 181.95696614 97.82914806 181.95696614 99 183 C107.45665643 164.66428576 115.89420593 146.32276167 124.12060547 127.88232422 C128.29378475 118.54063472 132.54536503 109.23654551 136.8125 99.9375 C142.58964181 87.34727451 148.25278685 74.71095026 153.85131836 62.04040527 C160.13127064 47.83963016 166.61141366 33.73474508 173.14990234 19.65136719 C173.51837784 18.85714859 173.88685333 18.06292999 174.26649475 17.24464417 C174.95133648 15.7693281 175.63715766 14.29446609 176.32420349 12.82017517 C176.63334183 12.15466141 176.94248016 11.48914764 177.26098633 10.8034668 C177.52583328 10.23476364 177.79068024 9.66606049 178.06355286 9.0801239 C179.41777276 6.07200411 180.70050231 3.03216127 182 0 C191.24 0 200.48 0 210 0 C209.21232743 4.72603543 208.59512374 7.32860036 206.62109375 11.4453125 C206.12029297 12.50363281 205.61949219 13.56195313 205.10351562 14.65234375 C204.55373047 15.79832031 204.00394531 16.94429688 203.4375 18.125 C202.24344336 20.64597454 201.05653709 23.17027785 199.87109375 25.6953125 C199.40236343 26.69223114 199.40236343 26.69223114 198.92416382 27.70928955 C195.15748086 35.75030304 191.58438601 43.87656924 188 52 C183.26599883 62.71535487 178.46958542 73.39135534 173.5 84 C168.6378075 94.38135669 163.9439212 104.82673922 159.3125 115.3125 C153.59978163 128.24461256 147.7586887 141.11107409 141.8125 153.9375 C135.41716643 167.73325232 129.12028598 181.56599348 122.92578125 195.453125 C118.67027375 204.992944 114.33228251 214.49484285 110 224 C102.08 224 94.16 224 86 224 C60.67027567 156.82295745 60.67027567 156.82295745 49.97909546 128.27383423 C45.05199923 115.11823792 40.1074275 101.96929399 35.15234375 88.82421875 C34.85470753 88.03459873 34.5570713 87.24497871 34.2504158 86.43143082 C31.26091127 78.50057768 28.27063322 70.57001697 25.27866268 62.6400938 C24.16601042 59.69083854 23.05379035 56.74142041 21.9416523 53.79197121 C21.41902432 52.40628879 20.89618361 51.02068659 20.37312126 49.63516808 C19.65310079 47.72791967 18.93383089 45.82038795 18.21459961 43.9128418 C17.8092247 42.83850388 17.40384979 41.76416595 16.9861908 40.65727234 C16.29079786 38.7835493 15.6320134 36.89604019 15 35 C8.60345942 50.63858815 2.67526083 66.44313552 -3.2008667 82.28222656 C-5.9697046 89.74531385 -8.74822644 97.20479818 -11.52734375 104.6640625 C-11.8052903 105.41025093 -12.08323685 106.15643936 -12.36960602 106.92523956 C-17.84928492 121.63279052 -23.41210155 136.30793381 -29.00912476 150.97122192 C-33.50647967 162.75644967 -37.96503193 174.55482838 -42.359375 186.37890625 C-42.80221832 187.57035248 -43.24506165 188.76179871 -43.70132446 189.98934937 C-45.84722833 195.76650941 -47.98853451 201.5453346 -50.12451172 207.32617188 C-50.88767073 209.38542578 -51.65085303 211.44467105 -52.4140625 213.50390625 C-52.76410339 214.45536026 -53.11414429 215.40681427 -53.47479248 216.38710022 C-53.79458069 217.24879318 -54.1143689 218.11048615 -54.44384766 218.99829102 C-54.72185211 219.75126968 -54.99985657 220.50424835 -55.2862854 221.28004456 C-56 223 -56 223 -57 224 C-58.70772358 224.08713831 -60.41898649 224.10700007 -62.12890625 224.09765625 C-63.68061523 224.09282227 -63.68061523 224.09282227 -65.26367188 224.08789062 C-66.35228516 224.07951172 -67.44089844 224.07113281 -68.5625 224.0625 C-70.2012207 224.05573242 -70.2012207 224.05573242 -71.87304688 224.04882812 C-74.58208495 224.03699826 -77.29101599 224.02051543 -80 224 C-86.58685482 211.36358667 -92.37583647 198.38311336 -98.16355896 185.36740112 C-101.95811831 176.83745867 -105.79248878 168.32543961 -109.625 159.8125 C-110.3874536 158.11808377 -111.14990475 156.42366645 -111.91235352 154.72924805 C-117.9312775 141.35688322 -123.97512989 127.99585328 -130.0239563 114.63699341 C-135.58133399 102.36263271 -141.1195322 90.08008769 -146.61328125 77.77709961 C-149.05240141 72.31972746 -151.51104223 66.87299414 -154.015625 61.4453125 C-154.48863037 60.41760742 -154.96163574 59.38990234 -155.44897461 58.33105469 C-156.33022556 56.4205468 -157.21613871 54.51217947 -158.10766602 52.60644531 C-158.49108154 51.77467773 -158.87449707 50.94291016 -159.26953125 50.0859375 C-159.77383667 49.0038501 -159.77383667 49.0038501 -160.28833008 47.89990234 C-161 46 -161 46 -161 43 C-157.10422976 42.94178065 -153.20857198 42.9063297 -149.3125 42.875 C-148.20970703 42.85824219 -147.10691406 42.84148437 -145.97070312 42.82421875 C-144.90400391 42.81777344 -143.83730469 42.81132812 -142.73828125 42.8046875 C-141.26935425 42.78897705 -141.26935425 42.78897705 -139.77075195 42.77294922 C-136.58653802 43.03388137 -134.73639312 43.31190338 -132 45 C-130.47701613 47.58999927 -129.29311453 49.96715276 -128.13671875 52.71484375 C-127.61352303 53.89908684 -127.61352303 53.89908684 -127.07975769 55.10725403 C-125.93334003 57.7107782 -124.8108054 60.32393133 -123.6875 62.9375 C-122.88814105 64.76223139 -122.08684706 66.58611623 -121.28369141 68.40917969 C-119.64113983 72.13924307 -118.00541789 75.87219181 -116.37353516 79.60693359 C-113.28445681 86.65288266 -110.07488183 93.64201093 -106.85305786 100.62799072 C-101.04629806 113.22642549 -95.36476384 125.87746712 -89.75 138.5625 C-84.92156963 149.46902556 -80.05346463 160.35425131 -75.0625 171.1875 C-74.30888184 172.82730835 -74.30888184 172.82730835 -73.54003906 174.50024414 C-73.08467773 175.48371826 -72.62931641 176.46719238 -72.16015625 177.48046875 C-71.76449463 178.33535889 -71.36883301 179.19024902 -70.96118164 180.07104492 C-70.14886789 181.95697382 -70.14886789 181.95697382 -69 183 C-68.71202042 182.23549026 -68.42404083 181.47098053 -68.12733459 180.68330383 C-43.13809656 114.34453036 -43.13809656 114.34453036 -34.25 90.8125 C-33.929245 89.96323944 -33.60848999 89.11397888 -33.27801514 88.23898315 C-29.186062 77.40709408 -25.08303369 66.57942226 -20.9740181 55.7539959 C-20.2165439 53.75838539 -19.45914218 51.76274739 -18.70175171 49.7671051 C-16.47327339 43.89556576 -14.24441509 38.0241724 -12.01339626 32.15359783 C-10.87686757 29.16250434 -9.74127296 26.17105616 -8.60546875 23.1796875 C-8.19892563 22.11081802 -7.79238251 21.04194855 -7.3735199 19.94068909 C-6.79453697 18.41519691 -6.79453697 18.41519691 -6.20385742 16.85888672 C-5.87318771 15.98867889 -5.54251801 15.11847107 -5.201828 14.22189331 C-3.43764802 9.49243146 -1.72504575 4.7438758 0 0 Z " fill="#000000" transform="translate(592,388)"/>
</svg>
